<svg width="40" height="40" viewBox="0 0 40 40" fill="none" xmlns="http://www.w3.org/2000/svg">
<path d="M6.66732 21.6666C12.5007 18.3332 20.0007 18.3332 23.334 24.9999C24.7442 24.2799 26.3169 23.9375 27.8988 24.006C29.4807 24.0745 31.0178 24.5516 32.3605 25.3907C33.7032 26.2299 34.8057 27.4026 35.5604 28.7945C36.3152 30.1864 36.6965 31.7501 36.6673 33.3332M8.58398 29.8166C17.784 27.2833 23.0007 18.3333 20.2507 9.81659C19.2507 6.66659 19.1673 3.33325 21.6673 3.33325C27.034 3.33325 30.0007 12.4999 30.0007 16.6666C30.0007 27.4999 23.0007 36.6666 12.5173 36.6666C8.51732 36.6666 3.33398 36.6666 3.33398 33.3333C3.33398 30.8333 5.23398 30.7499 8.58398 29.8166Z" stroke="#DD3888" stroke-width="3" stroke-linecap="round" stroke-linejoin="round"/>
</svg>
