<svg width="18" height="18" viewBox="0 0 18 18" fill="none" xmlns="http://www.w3.org/2000/svg">
<path d="M1.5 1.5L16.5 16.5M5.25 5.25H3C2.60218 5.25 2.22064 5.40804 1.93934 5.68934C1.65804 5.97064 1.5 6.35218 1.5 6.75V13.5C1.5 13.8978 1.65804 14.2794 1.93934 14.5607C2.22064 14.842 2.60218 15 3 15H15M7.125 3H10.875L12.75 5.25H15C15.3978 5.25 15.7794 5.40804 16.0607 5.68934C16.342 5.97064 16.5 6.35218 16.5 6.75V12.375M10.5907 11.3407C10.384 11.5591 10.1356 11.734 9.86026 11.8548C9.58487 11.9757 9.28805 12.0401 8.98734 12.0443C8.68663 12.0485 8.38813 11.9923 8.10949 11.8792C7.83085 11.766 7.57772 11.5982 7.36506 11.3855C7.15241 11.1729 6.98454 10.9197 6.87139 10.6411C6.75824 10.3625 6.70209 10.064 6.70627 9.76324C6.71045 9.46253 6.77488 9.16571 6.89574 8.89032C7.01659 8.61494 7.19143 8.36657 7.40992 8.15991" stroke="#A4A4A4" stroke-width="1.5" stroke-linecap="round" stroke-linejoin="round"/>
</svg>
