<svg width="30" height="33" viewBox="0 0 30 33" fill="none" xmlns="http://www.w3.org/2000/svg">
<path d="M8.16667 31.4999H21.5M14.8333 26.4999V31.4999M3.4 14.8332C3.14133 13.9627 3.08945 13.0439 3.24851 12.1498C3.40756 11.2558 3.77315 10.4112 4.31616 9.68336C4.85918 8.95552 5.56462 8.3645 6.37633 7.95736C7.18803 7.55022 8.08358 7.33822 8.99167 7.33822C9.89975 7.33822 10.7953 7.55022 11.607 7.95736C12.4187 8.3645 13.1242 8.95552 13.6672 9.68336C14.2102 10.4112 14.5758 11.2558 14.7348 12.1498C14.8939 13.0439 14.842 13.9627 14.5833 14.8332M15.0669 14.8332C14.8082 13.9627 14.7563 13.0439 14.9154 12.1498C15.0744 11.2558 15.44 10.4112 15.983 9.68336C16.526 8.95552 17.2315 8.3645 18.0432 7.95736C18.8549 7.55022 19.7504 7.33822 20.6585 7.33822C21.5666 7.33822 22.4622 7.55022 23.2739 7.95736C24.0856 8.3645 24.791 8.95552 25.334 9.68336C25.877 10.4112 26.2426 11.2558 26.4017 12.1498C26.5607 13.0439 26.5089 13.9627 26.2502 14.8332M20.6667 7.33333C20.6667 6.56729 20.5158 5.80875 20.2226 5.10101C19.9295 4.39328 19.4998 3.75022 18.9581 3.20854C18.4164 2.66687 17.7734 2.23719 17.0657 1.94404C16.3579 1.65088 15.5994 1.5 14.8333 1.5C14.0673 1.5 13.3087 1.65088 12.601 1.94404C11.8933 2.23719 11.2502 2.66687 10.7085 3.20854C10.1669 3.75022 9.73719 4.39328 9.44404 5.10101C9.15088 5.80875 9 6.56729 9 7.33333M14.8333 24.8332C23.1667 24.8332 28.1667 20.3499 28.1667 14.8332H1.5C1.5 20.3499 6.5 24.8332 14.8333 24.8332Z" stroke="#DD3888" stroke-width="3" stroke-linecap="round" stroke-linejoin="round"/>
</svg>
