<svg width="20" height="20" viewBox="0 0 20 20" fill="none" xmlns="http://www.w3.org/2000/svg">
<path d="M14.9993 18.3334H3.33268C2.89065 18.3334 2.46673 18.1578 2.15417 17.8452C1.84161 17.5326 1.66602 17.1087 1.66602 16.6667V5.00002M18.3327 10.8334L17.2527 9.75338C16.8761 9.37681 16.3653 9.16526 15.8327 9.16526C15.3001 9.16526 14.7893 9.37681 14.4127 9.75338L9.16602 15.0001M11.666 6.66669C11.666 7.58716 10.9198 8.33335 9.99935 8.33335C9.07887 8.33335 8.33268 7.58716 8.33268 6.66669C8.33268 5.74621 9.07887 5.00002 9.99935 5.00002C10.9198 5.00002 11.666 5.74621 11.666 6.66669ZM6.66602 1.66669H16.666C17.5865 1.66669 18.3327 2.41288 18.3327 3.33335V13.3334C18.3327 14.2538 17.5865 15 16.666 15H6.66602C5.74554 15 4.99935 14.2538 4.99935 13.3334V3.33335C4.99935 2.41288 5.74554 1.66669 6.66602 1.66669Z" stroke="#DD3888" stroke-width="2" stroke-linecap="round" stroke-linejoin="round"/>
</svg>
