<svg width="32" height="32" viewBox="0 0 32 32" fill="none" xmlns="http://www.w3.org/2000/svg">
<path d="M28 16V25.3333C28 26.0405 27.719 26.7188 27.219 27.2189C26.7189 27.719 26.0406 28 25.3333 28H6.66667C5.95942 28 5.28115 27.719 4.78105 27.2189C4.28095 26.7188 4 26.0405 4 25.3333V6.66663C4 5.95938 4.28095 5.2811 4.78105 4.78101C5.28115 4.28091 5.95942 3.99996 6.66667 3.99996H16M21.3333 6.66663H29.3333M25.3333 2.66663V10.6666M28 19.9999L23.8853 15.8852C23.3853 15.3853 22.7071 15.1045 22 15.1045C21.2929 15.1045 20.6147 15.3853 20.1147 15.8852L8 27.9999M14.6667 12C14.6667 13.4727 13.4728 14.6666 12 14.6666C10.5272 14.6666 9.33333 13.4727 9.33333 12C9.33333 10.5272 10.5272 9.33329 12 9.33329C13.4728 9.33329 14.6667 10.5272 14.6667 12Z" stroke="#DD3888" stroke-width="2" stroke-linecap="round" stroke-linejoin="round"/>
</svg>
