<svg width="36" height="36" viewBox="0 0 36 36" fill="none" xmlns="http://www.w3.org/2000/svg">
<path d="M33 19.5V9C33 8.20435 32.6839 7.44129 32.1213 6.87868C31.5587 6.31607 30.7956 6 30 6H6C5.20435 6 4.44129 6.31607 3.87868 6.87868C3.31607 7.44129 3 8.20435 3 9V27C3 28.65 4.35 30 6 30H18M33 10.5L19.545 19.05C19.0819 19.3401 18.5465 19.494 18 19.494C17.4535 19.494 16.9181 19.3401 16.455 19.05L3 10.5M24 28.5L27 31.5L33 25.5" stroke="#00B80F" stroke-width="3" stroke-linecap="round" stroke-linejoin="round"/>
</svg>
