<svg width="48" height="48" viewBox="0 0 48 48" fill="none" xmlns="http://www.w3.org/2000/svg">
<path d="M17.67 28H10C9.59307 28.0222 9.20262 28.1681 8.88093 28.4183C8.55924 28.6685 8.32166 29.011 8.2 29.4L4.2 41.4C4 41.6 4 41.8 4 42C4 43.2 4.8 44 6 44H42C43.2 44 44 43.2 44 42C44 41.8 44 41.6 43.8 41.4L39.8 29.4C39.6783 29.011 39.4408 28.6685 39.1191 28.4183C38.7974 28.1681 38.4069 28.0222 38 28H30.33M36 16C36 25 24 34 24 34C24 34 12 25 12 16C12 12.8174 13.2643 9.76516 15.5147 7.51472C17.7652 5.26428 20.8174 4 24 4C27.1826 4 30.2348 5.26428 32.4853 7.51472C34.7357 9.76516 36 12.8174 36 16ZM28 16C28 18.2091 26.2091 20 24 20C21.7909 20 20 18.2091 20 16C20 13.7909 21.7909 12 24 12C26.2091 12 28 13.7909 28 16Z" stroke="#DD3888" stroke-width="2" stroke-linecap="round" stroke-linejoin="round"/>
</svg>
