<svg width="28" height="28" viewBox="0 0 28 28" fill="none" xmlns="http://www.w3.org/2000/svg">
<path d="M9.33398 14H9.34565M14.0007 14H14.0123M18.6673 14H18.679M9.21732 23.3334C11.444 24.4756 14.0054 24.785 16.44 24.2058C18.8746 23.6266 21.0223 22.1969 22.496 20.1743C23.9698 18.1517 24.6726 15.6692 24.478 13.1742C24.2834 10.6793 23.204 8.33586 21.4344 6.56628C19.6649 4.79671 17.3214 3.71735 14.8265 3.52271C12.3315 3.32807 9.84903 4.03095 7.82644 5.50468C5.80385 6.97841 4.37412 9.12609 3.79491 11.5607C3.2157 13.9953 3.52508 16.5567 4.66732 18.7834L2.33398 25.6667L9.21732 23.3334Z" stroke="#DD3888" stroke-width="2" stroke-linecap="round" stroke-linejoin="round"/>
</svg>
