<svg width="40" height="40" viewBox="0 0 40 40" fill="none" xmlns="http://www.w3.org/2000/svg">
<path d="M11.6673 16.6666V36.6666M25.0007 9.79992L23.334 16.6666H33.0507C33.5681 16.6666 34.0785 16.7871 34.5414 17.0185C35.0042 17.2499 35.4068 17.5859 35.7173 17.9999C36.0278 18.4139 36.2376 18.8945 36.3302 19.4036C36.4228 19.9128 36.3955 20.4365 36.2507 20.9333L32.3673 34.2666C32.1654 34.959 31.7443 35.5672 31.1673 35.9999C30.5903 36.4327 29.8886 36.6666 29.1673 36.6666H6.66732C5.78326 36.6666 4.93542 36.3154 4.31029 35.6903C3.68517 35.0652 3.33398 34.2173 3.33398 33.3333V19.9999C3.33398 19.1159 3.68517 18.268 4.31029 17.6429C4.93542 17.0178 5.78326 16.6666 6.66732 16.6666H11.2673C11.8875 16.6663 12.4952 16.4929 13.0222 16.1661C13.5493 15.8393 13.9747 15.3719 14.2507 14.8166L20.0007 3.33325C20.7866 3.34298 21.5602 3.5302 22.2637 3.88091C22.9671 4.23162 23.5822 4.73676 24.063 5.35859C24.5438 5.98042 24.8778 6.70285 25.0402 7.47192C25.2026 8.24099 25.1891 9.03681 25.0007 9.79992Z" stroke="#DD3888" stroke-width="3" stroke-linecap="round" stroke-linejoin="round"/>
</svg>
